<svg width="14" height="13" viewBox="0 0 14 13" fill="none" xmlns="http://www.w3.org/2000/svg">
<path fill-rule="evenodd" clip-rule="evenodd" d="M0 12.7273H2.54545V5.09091H0V12.7273ZM14 5.72727C14 5.02727 13.4273 4.45455 12.7273 4.45455H8.71818L9.35455 1.52727C9.35455 1.46364 9.35455 1.4 9.35455 1.33636C9.35455 1.08182 9.22727 0.827273 9.1 0.636364L8.4 0L4.2 4.2C3.94545 4.39091 3.81818 4.70909 3.81818 5.09091V11.4545C3.81818 12.1545 4.39091 12.7273 5.09091 12.7273H10.8182C11.3273 12.7273 11.7727 12.4091 11.9636 11.9636L13.8727 7.44545C13.9364 7.31818 13.9364 7.12727 13.9364 7V5.72727H14C14 5.72727 14 5.79091 14 5.72727Z" fill="#8D9AAF"/>
</svg>
