<svg width="14" height="16" viewBox="0 0 14 16" fill="none" xmlns="http://www.w3.org/2000/svg">
<path fill-rule="evenodd" clip-rule="evenodd" d="M12.4444 0H1.55556C0.7 0 0 0.685714 0 1.52381V12.1905C0 13.0286 0.7 13.7143 1.55556 13.7143H4.66667L7 16L9.33333 13.7143H12.4444C13.3 13.7143 14 13.0286 14 12.1905V1.52381C14 0.685714 13.3 0 12.4444 0ZM7.77724 12.1905H6.22168V10.6667H7.77724V12.1905ZM9.41089 6.3238L8.71089 7.00952C8.08867 7.54285 7.77756 7.99999 7.77756 9.14285H6.22201V8.7619C6.22201 7.9238 6.53312 7.1619 7.15534 6.62857L8.08867 5.63809C8.39978 5.40952 8.55534 5.02857 8.55534 4.57142C8.55534 3.73333 7.85534 3.04761 6.99978 3.04761C6.14423 3.04761 5.44423 3.73333 5.44423 4.57142H3.88867C3.88867 2.89523 5.28867 1.5238 6.99978 1.5238C8.71089 1.5238 10.1109 2.89523 10.1109 4.57142C10.1109 5.25714 9.79978 5.86666 9.41089 6.3238Z" fill="#4F65E1"/>
</svg>
