<svg width="19" height="20" viewBox="0 0 19 20" fill="none" xmlns="http://www.w3.org/2000/svg">
<path fill-rule="evenodd" clip-rule="evenodd" d="M17.4167 7.00481C17.4167 6.14431 16.7121 5.45437 15.8333 5.45437H12.6667V3.90393C12.6667 3.04344 11.9621 2.3535 11.0833 2.3535H7.91668C7.03793 2.3535 6.33334 3.04344 6.33334 3.90393V5.45437H3.16668C2.28793 5.45437 1.59126 6.14431 1.59126 7.00481L1.58334 15.5322C1.58334 16.3927 2.28793 17.0826 3.16668 17.0826H15.8333C16.7121 17.0826 17.4167 16.3927 17.4167 15.5322V7.00481ZM11.0833 5.45437V3.90393H7.91668V5.45437H11.0833ZM3.16668 7.00481V15.5322H15.8333V7.00481H3.16668Z" fill="#8D9AAF"/>
</svg>
