<svg width="19" height="19" viewBox="0 0 19 19" fill="none" xmlns="http://www.w3.org/2000/svg">
<path fill-rule="evenodd" clip-rule="evenodd" d="M16.625 15.7009V5.08779C16.625 4.2539 15.9125 3.57162 15.0417 3.57162H14.25V2.05546H12.6667V3.57162H6.33333V2.05546H4.75V3.57162H3.95833C3.07958 3.57162 2.38292 4.2539 2.38292 5.08779L2.375 15.7009C2.375 16.5348 3.07958 17.2171 3.95833 17.2171H15.0417C15.9125 17.2171 16.625 16.5348 16.625 15.7009ZM7.125 8.87819H5.54167V10.3944H7.125V8.87819ZM3.95833 6.60396H15.0417V5.08779H3.95833V6.60396ZM15.0417 8.12011V15.7009H3.95833V8.12011H15.0417ZM11.875 10.3944H13.4583V8.87819H11.875V10.3944ZM10.2917 10.3944H8.70833V8.87819H10.2917V10.3944Z" fill="#8D9AAF"/>
</svg>
