<svg width="14" height="13" viewBox="0 0 14 13" fill="none" xmlns="http://www.w3.org/2000/svg">
<path fill-rule="evenodd" clip-rule="evenodd" d="M10.15 0C8.96 0 7.77 0.56 7 1.47C6.23 0.56 5.04 0 3.85 0C1.68 0 0 1.68 0 3.85C0 6.51 2.38 8.68 6.02 11.9L7 12.81L7.98 11.9C11.55 8.61 14 6.44 14 3.85C14 1.68 12.32 0 10.15 0ZM7.07002 10.92H7.00002L6.93002 10.85C3.57002 7.83999 1.40002 5.87999 1.40002 3.84999C1.40002 2.44999 2.45002 1.39999 3.85002 1.39999C4.90002 1.39999 5.95002 2.09999 6.37002 3.07999H7.70002C8.05002 2.09999 9.10002 1.39999 10.15 1.39999C11.55 1.39999 12.6 2.44999 12.6 3.84999C12.6 5.87999 10.43 7.83999 7.07002 10.92Z" fill="#8D9AAF"/>
</svg>
