<svg width="19" height="19" viewBox="0 0 19 19" fill="none" xmlns="http://www.w3.org/2000/svg">
<path fill-rule="evenodd" clip-rule="evenodd" d="M9.5 2.05546C6.43625 2.05546 3.95834 4.42826 3.95834 7.36203C3.95834 11.342 9.5 17.2171 9.5 17.2171C9.5 17.2171 15.0417 11.342 15.0417 7.36203C15.0417 4.42826 12.5638 2.05546 9.5 2.05546ZM5.54167 7.36202C5.54167 5.26972 7.315 3.57162 9.5 3.57162C11.685 3.57162 13.4583 5.26972 13.4583 7.36202C13.4583 9.5453 11.1783 12.8126 9.5 14.8519C7.85334 12.8278 5.54167 9.52256 5.54167 7.36202ZM7.52084 7.36203C7.52084 6.31534 8.40694 5.46683 9.5 5.46683C10.2071 5.46683 10.8605 5.82805 11.214 6.41443C11.5676 7.00081 11.5676 7.72326 11.214 8.30963C10.8605 8.89601 10.2071 9.25724 9.5 9.25724C8.40694 9.25724 7.52084 8.40872 7.52084 7.36203Z" fill="#8D9AAF"/>
</svg>
