<svg width="17" height="11" viewBox="0 0 17 11" fill="none" xmlns="http://www.w3.org/2000/svg">
<path fill-rule="evenodd" clip-rule="evenodd" d="M11.8154 4.36364C13.0434 4.36364 13.9824 3.41818 13.9824 2.18182C13.9824 0.945454 13.0434 0 11.8154 0C10.5875 0 9.64845 0.945454 9.64845 2.18182C9.64845 3.41818 10.5875 4.36364 11.8154 4.36364ZM6.0371 4.36364C7.26506 4.36364 8.20409 3.41818 8.20409 2.18182C8.20409 0.945454 7.26506 0 6.0371 0C4.80914 0 3.87011 0.945454 3.87011 2.18182C3.87011 3.41818 4.80914 4.36364 6.0371 4.36364ZM6.0369 5.81771C4.37554 5.81771 0.980591 6.69044 0.980591 8.36316V10.1813H11.0932V8.36316C11.0932 6.69044 7.69826 5.81771 6.0369 5.81771ZM11.8155 5.81836C11.5988 5.81836 11.3821 5.81836 11.0931 5.89109C11.9599 6.4729 12.5378 7.34563 12.5378 8.36381V10.182H16.8718V8.36381C16.8718 6.69109 13.4768 5.81836 11.8155 5.81836Z" fill="#B3C1DB"/>
</svg>
