<svg width="20" height="20" viewBox="0 0 20 20" fill="none" xmlns="http://www.w3.org/2000/svg">
<g id="post-gplus">
<path id="Shape" fill-rule="evenodd" clip-rule="evenodd" d="M9.2 6.9C9.2 5.9 8.6 3.9 7.1 3.9C6.5 3.9 5.8 4.3 5.8 5.6C5.8 6.8 6.4 8.5 7.8 8.5C7.8 8.5 9.2 8.4 9.2 6.9ZM8.6 11.8C8.5 11.8 8.4 11.8 8.3 11.8C8 11.8 7.1 11.9 6.5 12.1C5.8 12.3 5 12.8 5 13.8C5 14.9 6 16 8 16C9.5 16 10.4 15 10.4 14C10.4 13.3 9.9 12.8 8.6 11.8ZM18 0H2C0.9 0 0 0.9 0 2V18C0 19.1 0.9 20 2 20H18C19.1 20 20 19.1 20 18V2C20 0.9 19.1 0 18 0ZM7.1 17.2C4.3 17.2 3 15.6 3 14.2C3 13.7 3.1 12.6 4.5 11.8C5.3 11.3 6.3 11 7.6 10.9C7.4 10.7 7.3 10.4 7.3 9.9C7.3 9.7 7.3 9.6 7.4 9.4H7C5 9.4 3.8 7.9 3.8 6.4C3.8 4.7 5.1 2.8 7.9 2.8H12.1L11.8 3.1L11.1 3.8L11 3.9H10.3C10.7 4.3 11.2 5 11.2 6.1C11.2 7.5 10.5 8.2 9.6 8.8C9.4 8.9 9.2 9.2 9.2 9.5C9.2 9.8 9.4 10 9.6 10.1C9.7 10.2 9.9 10.3 10.1 10.4C10.9 11 12 11.7 12 13.3C12 15.1 10.7 17.2 7.1 17.2ZM17 10H15V12H14V10H12V9H14V7H15V9H17V10Z" fill="#B3C1DB"/>
</g>
</svg>
