<svg width="15" height="4" viewBox="0 0 15 4" fill="none" xmlns="http://www.w3.org/2000/svg">
<path fill-rule="evenodd" clip-rule="evenodd" d="M1.87502 0C0.84376 0 0 0.844975 0 1.87772C0 2.91047 0.84376 3.75545 1.87502 3.75545C2.90628 3.75545 3.75004 2.91047 3.75004 1.87772C3.75004 0.844975 2.90628 0 1.87502 0ZM13.125 0C12.0938 0 11.25 0.844975 11.25 1.87772C11.25 2.91047 12.0938 3.75545 13.125 3.75545C14.1562 3.75545 15 2.91047 15 1.87772C15 0.844975 14.1562 0 13.125 0ZM7.5 0C6.46875 0 5.625 0.844975 5.625 1.87772C5.625 2.91047 6.46875 3.75545 7.5 3.75545C8.53125 3.75545 9.375 2.91047 9.375 1.87772C9.375 0.844975 8.53125 0 7.5 0Z" fill="#8D9AAF"/>
</svg>
